<svg width="71" height="72" fill="none" xmlns="http://www.w3.org/2000/svg"><path d="M66.055 45.74c1.765-.025 4.265-1.628 4.258-3.575V20.427c0-1.954-1.367-4.215-3.112-4.817a28.911 28.911 0 00-18.394 0c-1.742.595-3.113 2.863-3.113 4.817v21.738c0 1.94 2.494 3.554 4.259 3.575" fill="#C5E1F9"/><path d="M23.346 25.052l-7.592 2.577 5.134 16.33 7.592-2.577-5.134-16.33z" fill="#C0E5FC"/><path d="M40.883 38.672a5.306 5.306 0 01-.837 2.868 5.013 5.013 0 01-2.229 1.9 4.794 4.794 0 01-2.87.294 4.912 4.912 0 01-2.543-1.412 5.226 5.226 0 01-1.359-2.643 5.348 5.348 0 01.283-2.982 5.123 5.123 0 011.83-2.316 4.836 4.836 0 012.758-.87c1.318 0 2.581.544 3.513 1.512a5.265 5.265 0 011.454 3.65z" fill="#FFD49C"/><path d="M35.93 45.251a6.163 6.163 0 01-3.518-1.109 6.531 6.531 0 01-2.331-2.952 6.817 6.817 0 01-.36-3.8 6.662 6.662 0 011.732-3.37 6.26 6.26 0 013.242-1.8 6.11 6.11 0 013.657.375 6.39 6.39 0 012.842 2.423 6.762 6.762 0 011.067 3.654 6.722 6.722 0 01-1.857 4.65 6.223 6.223 0 01-4.474 1.929zm0-10.294c-.708 0-1.399.218-1.987.626a3.69 3.69 0 00-1.317 1.668 3.85 3.85 0 00-.204 2.146 3.76 3.76 0 00.98 1.903c.5.52 1.136.874 1.83 1.017.694.143 1.413.07 2.066-.212a3.61 3.61 0 001.605-1.368 3.82 3.82 0 00.603-2.065 3.794 3.794 0 00-1.048-2.626 3.513 3.513 0 00-2.528-1.09z" fill="#222F5A"/><path d="M35.93 57.806L24.824 42.753l2.189-1.741 8.917 12.087 8.917-12.087 2.188 1.74L35.93 57.807z" fill="#222F5A"/><path d="M41.324 48.055H30.533v12.17h10.79v-12.17z" fill="#FFD49C"/><path d="M42.705 61.656h-13.55V46.624h13.55v15.032zm-10.782-2.863h8.037v-9.29h-8.037v9.29z" fill="#222F5A"/><path d="M34.208 59.984h-2.755v10.26h2.755v-10.26zm6.199 0h-2.755v10.26h2.755v-10.26z" fill="#222F5A"/><path d="M16.073 70.068c1.103-10.586 2.198-21.173 3.284-31.764H7.007a20602.6 20602.6 0 013.284 31.764h5.782z" fill="#C0E5FC"/><path d="M50.84 23.768v46.3h14.33v-46.3" fill="#C5E1F9"/><path d="M66.548 71.5H49.463V23.767h2.755v44.869h11.575v-44.87h2.755V71.5z" fill="#222F5A"/><path d="M59.38 46.844h-2.755v23.224h2.755V46.844zm-45.119 7.652h-2.755v15.572h2.755V54.496z" fill="#222F5A"/><path d="M22.755 22.574c-.593-1.954-2.2-4.218-3.457-4.817-2.212-1.001-4.162-1.5-6.113-1.5-1.95 0-3.904.499-6.116 1.5-1.258.595-2.864 2.863-3.457 4.817a4026.74 4026.74 0 00-2.741 9.5c.91 3.165 1.822 6.331 2.738 9.499.59 1.954 2.196 4.218 3.454 4.817 2.212.998 4.162 1.5 6.115 1.5 1.95 0 3.904-.502 6.116-1.5 1.255-.595 2.864-2.863 3.454-4.817.914-3.165 1.827-6.33 2.738-9.496l-2.732-9.503z" fill="#C0E5FC"/><path d="M7.798 23.768l-6.11 31.144h22.987c-2.04-10.384-4.077-20.765-6.113-31.144" fill="#C0E5FC"/><path d="M26.36 56.34H0l6.45-32.858 2.699.572-5.775 29.424h19.612l-5.774-29.424 2.701-.572L26.36 56.34z" fill="#222F5A"/><path d="M64.737 6.998a7.194 7.194 0 01-1.135 3.889 6.798 6.798 0 01-3.023 2.577 6.5 6.5 0 01-3.892.398 6.661 6.661 0 01-3.448-1.916 7.086 7.086 0 01-1.843-3.585 7.252 7.252 0 01.385-4.043 6.947 6.947 0 012.482-3.14 6.513 6.513 0 016.32-.645 6.72 6.72 0 012.184 1.517 7.02 7.02 0 011.459 2.27c.338.85.512 1.76.511 2.678zM19.913 9.861a7.194 7.194 0 01-1.135 3.888 6.798 6.798 0 01-3.023 2.578 6.5 6.5 0 01-3.892.397 6.66 6.66 0 01-3.448-1.916 7.087 7.087 0 01-1.842-3.584 7.252 7.252 0 01.384-4.044A6.947 6.947 0 019.44 4.04a6.556 6.556 0 013.743-1.177c.884 0 1.76.18 2.577.533a6.72 6.72 0 012.184 1.517 7.018 7.018 0 011.46 2.27c.337.85.511 1.76.51 2.678z" fill="#C0E5FC"/></svg>