<svg width="79" height="76" fill="none" xmlns="http://www.w3.org/2000/svg"><path d="M45.39 16.346c0 3.232-.922 6.392-2.65 9.08-1.73 2.689-4.186 4.784-7.06 6.02a15.182 15.182 0 01-9.09.93c-3.05-.63-5.854-2.187-8.054-4.473a16.552 16.552 0 01-4.305-8.369 16.939 16.939 0 01.895-9.444c1.19-2.986 3.207-5.54 5.794-7.335A15.313 15.313 0 0129.66 0c2.065 0 4.111.423 6.02 1.244a15.705 15.705 0 015.103 3.543 16.4 16.4 0 013.41 5.303 16.9 16.9 0 011.198 6.256z" fill="#FFD49C"/><path d="M75.727 9.728h-43.07v8.563h5.991v2.807l.537-.138 5.95 1.607 5.943-1.607 5.95 1.607 5.944-1.607 5.946 1.607 5.314-1.438 4.493-2.838v-4.668l-2.998-3.895z" fill="#FFD49C"/><path d="M26.662 16.346c0 .616-.176 1.218-.505 1.73-.33.513-.798.912-1.346 1.148a2.893 2.893 0 01-1.732.176 2.965 2.965 0 01-1.535-.853 3.154 3.154 0 01-.82-1.596 3.229 3.229 0 01.173-1.8 3.092 3.092 0 011.105-1.397 2.918 2.918 0 011.667-.523c.794 0 1.555.33 2.117.913.56.584.876 1.376.876 2.202z" fill="#fff"/><path d="M23.669 21.06a4.416 4.416 0 01-2.522-.793 4.68 4.68 0 01-1.673-2.115 4.885 4.885 0 01-.26-2.724 4.774 4.774 0 011.241-2.415 4.487 4.487 0 012.323-1.29 4.379 4.379 0 012.622.267c.83.357 1.538.96 2.037 1.736.498.775.765 1.687.765 2.62a4.813 4.813 0 01-1.329 3.33 4.455 4.455 0 01-3.204 1.383zm0-6.23c-.29 0-.571.088-.812.254-.24.166-.427.402-.538.679a1.57 1.57 0 00-.085.876c.056.294.195.564.398.776.204.212.464.357.747.416s.576.029.843-.086a1.47 1.47 0 00.655-.558 1.557 1.557 0 00-.181-1.91 1.435 1.435 0 00-1.027-.447zm54.682-.473h-34.46v3.2h34.46v-3.2zM49.557 35.402h-3.079c0-.39-.05-.778-.151-1.154l2.96-.853a7.76 7.76 0 01.27 2.007zm-4.292-3.057a4.166 4.166 0 00-1.828-1.119l.84-3.076a7.198 7.198 0 013.164 1.923l-2.176 2.272zm-4.304-1.28h-2.927v-3.2h2.927v3.2zM35.1 27.866h-1.54v3.199h1.54v-3.2z" fill="#222F5A"/><path d="M33.882 27.866h-1.54v3.199h1.54v-3.2zm-4.811 3.199h-3.267v-3.2h3.267v3.2zm-6.539 0h-3.27v-3.2h3.27v3.2zm-6.538 0h-3.272v-3.2h3.272v3.2zm-6.543 0h-1.48a7.778 7.778 0 01-2.169-.304l.822-3.076a4.8 4.8 0 001.347.188h1.48v3.192zM2.328 28.7a8.49 8.49 0 01-2.102-3.53l2.938-.961c.25.83.699 1.583 1.303 2.188L2.327 28.7zm.695-7.064L0 21.03a8.605 8.605 0 011.71-3.753l2.372 2.038a5.308 5.308 0 00-1.059 2.322zm3.06-3.845l-1.132-2.968a7.794 7.794 0 013.031-.608h.74v3.218h-.74a4.834 4.834 0 00-1.898.358zm7.461-3.576h-1.54v3.2h1.54v-3.2z" fill="#222F5A"/><path d="M30.433 47.737c0 .276-.052.55-.153.805a2.09 2.09 0 01-.439.683c-.188.196-.411.35-.657.456a1.96 1.96 0 01-.775.16h-4.07a1.984 1.984 0 01-1.414-.626 2.143 2.143 0 01-.581-1.478c0-.558.213-1.093.593-1.487.38-.395.894-.616 1.43-.616h4.071c.537 0 1.052.221 1.432.616.38.394.593.93.593 1.487h-.03zm44.765 0c0 .277-.052.55-.154.806a2.11 2.11 0 01-.44.683 2.02 2.02 0 01-.658.455 1.96 1.96 0 01-.776.16h-4.052c-.265 0-.528-.055-.774-.16a2.018 2.018 0 01-.656-.457 2.107 2.107 0 01-.438-.682 2.171 2.171 0 01-.152-.805c0-.276.051-.55.152-.805a2.11 2.11 0 01.438-.682c.188-.195.41-.35.656-.456.246-.106.509-.16.774-.16h4.052a1.99 1.99 0 011.433.616c.38.394.594.929.595 1.487z" fill="#C5E1F9"/><path d="M65.27 39.555a2.448 2.448 0 00-.828-1.06 2.314 2.314 0 00-1.245-.44H34.322a2.324 2.324 0 00-1.245.44 2.46 2.46 0 00-.83 1.06l-4.32 12.17a1.076 1.076 0 00.076 1.06c.103.152.244.274.408.352a.97.97 0 00.523.087H68.6a.97.97 0 00.524-.087c.163-.078.304-.2.407-.353a1.068 1.068 0 00.076-1.06l-4.337-12.17z" fill="#fff"/><path d="M68.6 54.827H28.934a2.455 2.455 0 01-1.237-.27 2.565 2.565 0 01-.958-.856 2.728 2.728 0 01-.254-2.53L30.803 39a4.042 4.042 0 011.394-1.819 3.815 3.815 0 012.125-.727h28.886a3.82 3.82 0 012.124.728A4.041 4.041 0 0166.724 39l4.322 12.17a2.731 2.731 0 01-.258 2.53c-.245.365-.574.66-.958.856-.384.197-.81.29-1.237.27h.007zm-38.996-3.203h38.319l-4.07-11.516a.917.917 0 00-.266-.3.878.878 0 00-.364-.154h-28.9a.869.869 0 00-.365.153.91.91 0 00-.265.301l-4.089 11.516z" fill="#222F5A"/><path d="M29.208 54.258H26.97c-2.119 0-3.837 1.785-3.837 3.988v13.62c0 2.201 1.718 3.987 3.837 3.987h2.24c2.119 0 3.837-1.785 3.837-3.988v-13.62c0-2.201-1.718-3.987-3.838-3.987zm41.35 0h-2.235c-2.12 0-3.838 1.785-3.838 3.988v13.62c0 2.201 1.718 3.987 3.838 3.987h2.235c2.119 0 3.837-1.785 3.837-3.988v-13.62c0-2.201-1.718-3.987-3.837-3.987z" fill="#C5E1F9"/><path d="M69.155 49.733a4.637 4.637 0 00-2.694-1.058H31.066a4.636 4.636 0 00-2.694 1.058l-4.07 3.752a4.11 4.11 0 00-1.155 2.657v10.694c0 .424.163.83.452 1.13.288.3.68.468 1.087.47h48.17c.408-.002.799-.17 1.087-.47.289-.3.451-.706.452-1.13V56.154a4.11 4.11 0 00-1.154-2.657l-4.086-3.764z" fill="#fff"/><path d="M72.856 70.046H24.67a3.025 3.025 0 01-2.168-.942 3.268 3.268 0 01-.9-2.257V56.154a5.686 5.686 0 011.677-3.845l4.07-3.753a6.05 6.05 0 013.701-1.457h35.395a6.06 6.06 0 013.7 1.457l4.072 3.753a5.714 5.714 0 011.672 3.845v10.693c0 .84-.32 1.647-.887 2.245a3.028 3.028 0 01-2.147.954zm-41.79-19.76a3.164 3.164 0 00-1.673.658l-4.089 3.749a2.624 2.624 0 00-.633 1.46v10.694h48.185V56.154a2.596 2.596 0 00-.633-1.461l-4.07-3.75a3.174 3.174 0 00-1.677-.657h-35.41z" fill="#222F5A"/><path d="M63.79 68.447v-3.118c0-.637-.244-1.247-.677-1.697a2.266 2.266 0 00-1.633-.703H36.84c-.613 0-1.2.253-1.633.703a2.448 2.448 0 00-.677 1.697v3.118h29.26z" fill="#fff"/><path d="M65.322 70.046H32.99v-4.718a4.08 4.08 0 011.127-2.827 3.777 3.777 0 012.722-1.171h24.634c1.02 0 2 .42 2.721 1.17a4.08 4.08 0 011.127 2.829v4.717zm-29.235-3.199h26.174V65.33a.816.816 0 00-.225-.566.756.756 0 00-.545-.234H36.84c-.204 0-.4.084-.545.234a.816.816 0 00-.225.566l.018 1.518zm-5.151-4.717H26.83v3.198h4.107V62.13zm40.291 0H67.12v3.198h4.107V62.13z" fill="#222F5A"/><path d="M58.516 57.461c0 1.108-.614 2-1.369 2H40.38c-.74 0-1.37-.892-1.37-2 0-1.103.615-1.999 1.37-1.999h16.767c.74 0 1.37.896 1.37 2z" fill="#C5E1F9"/><path d="M35.865 57.461c-.74-1.103-1.916-1.999-2.627-1.999h-5.392c-.51 0-1 .21-1.36.586a2.04 2.04 0 00-.564 1.413c0 .53.203 1.04.564 1.414.36.375.85.586 1.36.586h6.795c1.417 0 1.965-.885 1.224-2zm25.797 0c.74-1.103 1.916-1.999 2.627-1.999h5.395c.51 0 1 .21 1.361.586.36.375.564.883.564 1.413a2.04 2.04 0 01-.564 1.414c-.36.375-.85.586-1.36.586h-6.799c-1.417 0-1.965-.885-1.224-2z" fill="#FFD49C"/></svg>