<svg width="72" height="61" fill="none" xmlns="http://www.w3.org/2000/svg"><path d="M60.91 44.317a33.047 33.047 0 002.277-15.378 32.732 32.732 0 00-4.99-14.67C55.394 9.88 51.59 6.281 47.125 3.791A29.806 29.806 0 0032.602 0a29.805 29.805 0 00-14.523 3.792c-4.466 2.49-8.27 6.089-11.072 10.476a32.732 32.732 0 00-4.99 14.67 33.048 33.048 0 002.276 15.38H60.91z" fill="#FFD49C"/><path d="M11.017 31.515l1.11-6.274h36.238l3.771 6.401" fill="#fff"/><path d="M50.931 32.408l-3.356-5.7h-34.27l-.9 5.072-2.776-.53 1.32-7.476h38.21l4.182 7.1-2.41 1.534z" fill="#222F5A"/><path d="M42.582 31.219h-2.977v-2.934h2.977v2.934zm-5.95 0h-2.966v-2.934h2.973l-.007 2.934zm-5.93 0h-2.986v-2.934h2.987v2.934zm-5.946 0H21.77v-2.934h2.973l.013 2.934zm-5.95 0H15.82v-2.934h2.973l.014 2.934z" fill="#222F5A"/><path d="M6.384 43.38l1.48-10.842h48.27l5.024 11.06" fill="#fff"/><path d="M59.882 44.222l-4.64-10.217H9.089l-1.306 9.582-2.797-.412 1.65-12.104H57.03l5.403 11.9-2.552 1.251zm6.295-27.706H63.35a3.915 3.915 0 00-1.122-2.642 3.628 3.628 0 00-2.576-1.085 3.63 3.63 0 00-2.576 1.085 3.915 3.915 0 00-1.121 2.642H53.13c0-1.797.687-3.522 1.91-4.793a6.402 6.402 0 014.613-1.985c1.73 0 3.39.714 4.613 1.985a6.915 6.915 0 011.91 4.793z" fill="#222F5A"/><path d="M56.043 16.516h-2.827a3.915 3.915 0 00-1.122-2.642 3.628 3.628 0 00-2.576-1.085c-.962 0-1.886.389-2.576 1.085a3.915 3.915 0 00-1.122 2.642h-2.824c0-1.797.687-3.522 1.91-4.793a6.402 6.402 0 014.613-1.985c1.73 0 3.39.714 4.613 1.985a6.915 6.915 0 011.91 4.793zM37.321 9.83h-2.824a4.778 4.778 0 011.32-3.307 4.423 4.423 0 013.18-1.373v2.934a1.666 1.666 0 00-1.18.518 1.798 1.798 0 00-.496 1.228z" fill="#222F5A"/><path d="M37.372 9.83h-2.824a1.798 1.798 0 00-.495-1.228 1.666 1.666 0 00-1.181-.518V5.15a4.423 4.423 0 013.181 1.373 4.778 4.778 0 011.32 3.307z" fill="#222F5A"/><path d="M44.496 40.907l-.757 2.906H10.63l-.757-2.906H1.768l4.043 18.497h42.86c5.052 0 9.942-1.854 13.806-5.236 3.863-3.382 6.453-8.074 7.312-13.247l-25.293-.014z" fill="#fff"/><path d="M48.67 60.861H4.685L0 39.44h10.953l.743 2.906h30.947l.757-2.906h28.048l-.281 1.714c-.9 5.519-3.654 10.528-7.773 14.136-4.12 3.608-9.336 5.582-14.723 5.571zM6.945 57.923h41.747c4.428.006 8.732-1.518 12.235-4.333 3.502-2.815 6.004-6.761 7.111-11.216H45.57l-.75 2.924H9.548l-.757-2.906H3.55l3.393 15.531z" fill="#222F5A"/><path d="M7.983 48.75l1.337 6.07h39.371c2.439.005 4.85-.536 7.069-1.585a17.067 17.067 0 005.795-4.495l-53.572.01z" fill="#C0E5FC"/><path d="M12.894 37.86h29.267" stroke="#222F5A" stroke-width="8.32" stroke-dasharray="8.76 8.76"/></svg>